<svg width="32" height="39" viewBox="0 0 32 39" fill="none" xmlns="http://www.w3.org/2000/svg">
<circle cx="16" cy="25" r="6" fill="#DBE1FD"/>
<path d="M9.33337 24.8886C9.33337 28.533 12.3556 31.5553 16 31.5553V29.7775C13.3334 29.7775 11.1112 27.5553 11.1112 24.8886C11.1112 22.2219 13.3334 19.9997 16 19.9997C18.6667 19.9997 20.8889 22.2219 20.8889 24.8886H22.6667C22.6667 21.2441 19.6445 18.2219 16 18.2219C12.3556 18.2219 9.33337 21.2441 9.33337 24.8886Z" fill="#495456"/>
<path d="M27.5556 38.2223H4.44444C2.84444 38.2223 1.51111 36.889 1.51111 35.289L0 13.689C0 12.0001 1.33333 10.6667 2.93333 10.6667H29.0667C30.6667 10.6667 32 12.0001 32 13.6001L30.4889 35.3779C30.4889 36.889 29.1556 38.2223 27.5556 38.2223ZM2.93333 12.4445C2.31111 12.4445 1.77778 12.9779 1.77778 13.6001L3.28889 35.2001C3.28889 35.9112 3.82222 36.4445 4.44444 36.4445H27.5556C28.1778 36.4445 28.7111 35.9112 28.7111 35.289L30.2222 13.5112C30.2222 12.9779 29.6889 12.4445 29.0667 12.4445H2.93333V12.4445Z" fill="#495456"/>
<path d="M29.2444 8.97767L27.4666 8.88878L27.5555 7.02211C27.5555 6.66656 27.2 6.311 26.7555 6.311H5.2444C4.79996 6.311 4.4444 6.66656 4.4444 7.111L4.53329 8.88878L2.75552 8.97767L2.66663 7.111C2.66663 5.59989 3.82218 4.44434 5.2444 4.44434H26.7555C28.1777 4.44434 29.3333 5.59989 29.3333 7.02211L29.2444 8.97767Z" fill="#495456"/>
<path d="M26.6667 2.66667H24.8889C24.8889 1.77778 24.6223 1.77778 24.4445 1.77778H7.5556C7.37782 1.77778 7.11115 1.77778 7.11115 2.66667H5.33337C5.33337 0.888889 6.22226 0 7.5556 0H24.4445C25.7778 0 26.6667 0.888889 26.6667 2.66667Z" fill="#495456"/>
<path fill-rule="evenodd" clip-rule="evenodd" d="M16.0217 26.6159C15.1813 26.6159 14.5 25.9183 14.5 25.0579C14.5 24.1974 15.1813 23.5 16.0217 23.5C16.862 23.5 17.5434 24.1974 17.5434 25.0579C17.5434 25.9183 16.862 26.6159 16.0217 26.6159Z" fill="#495456"/>
</svg>
