<svg width="34" height="46" viewBox="0 0 34 46" fill="none" xmlns="http://www.w3.org/2000/svg">
<g clip-path="url(#clip0)">
<path fill-rule="evenodd" clip-rule="evenodd" d="M24.4892 7.49552C24.4892 11.3062 21.4294 14.3955 17.655 14.3955C13.8806 14.3955 10.8208 11.3062 10.8208 7.49552C10.8208 3.68481 13.8806 0.59552 17.655 0.59552C21.4294 0.59552 24.4892 3.68481 24.4892 7.49552Z" fill="#FC7E84"/>
<path fill-rule="evenodd" clip-rule="evenodd" d="M16.9999 19.4709C11.8522 19.4709 7.66008 23.7042 7.66008 28.95C7.66008 34.1959 11.8522 38.4291 16.9999 38.4291C22.1475 38.4291 26.3397 34.1959 26.3397 28.95C26.3397 23.7042 22.1475 19.4709 16.9999 19.4709ZM5.69287 28.95C5.69287 22.6368 10.7446 17.4995 16.9999 17.4995C23.2552 17.4995 28.3069 22.6368 28.3069 28.95C28.3069 35.2633 23.2552 40.4006 16.9999 40.4006C10.7446 40.4006 5.69287 35.2633 5.69287 28.95Z" fill="#495456"/>
<path fill-rule="evenodd" clip-rule="evenodd" d="M28.846 17.4851C35.2253 24.1053 35.1139 34.6113 28.5636 40.9505C22.0133 47.2896 11.5321 47.0345 5.15284 40.4144C-1.22646 33.7943 -1.11505 23.2882 5.43527 16.9491L6.80181 18.3672C1.04828 23.9352 0.928538 33.1927 6.56793 39.0449C12.2073 44.8972 21.4435 45.1004 27.197 39.5323C32.9506 33.9643 33.0703 24.7069 27.4309 18.8546L28.846 17.4851Z" fill="#495456"/>
<path fill-rule="evenodd" clip-rule="evenodd" d="M11.2289 6.81316C11.2376 6.84351 11.2521 6.88332 11.2763 6.93258L13.4456 11.3451L11.6809 12.2164L9.51162 7.80386C9.20009 7.17018 9.11937 6.40338 9.52667 5.74935C9.93353 5.09602 10.6556 4.83112 11.3596 4.83112H24.8272V6.80254H11.3596C11.3034 6.80254 11.2605 6.8073 11.2289 6.81316Z" fill="#495456"/>
</g>
<defs>
<clipPath id="clip0">
<rect width="34" height="46" fill="white"/>
</clipPath>
</defs>
</svg>
