<svg width="35" height="31" viewBox="0 0 35 31" fill="none" xmlns="http://www.w3.org/2000/svg">
<circle cx="24" cy="8" r="6" fill="#DFE0BD"/>
<path d="M3.56558 25.025C3.46116 25.0266 3.35807 25.0488 3.26221 25.0903C3.16636 25.1317 3.07961 25.1917 3.00692 25.2666C2.93423 25.3416 2.87703 25.4302 2.83858 25.5273C2.80013 25.6243 2.78118 25.728 2.78281 25.8324V29.4099C2.78281 30.277 3.50588 30.9999 4.37321 30.9999H7.554C8.42132 30.9999 9.14439 30.277 9.14439 29.4099V25.8324C9.14588 25.7271 9.12641 25.6225 9.08712 25.5247C9.04782 25.427 8.98949 25.338 8.9155 25.263C8.84151 25.1879 8.75335 25.1284 8.65613 25.0877C8.55891 25.047 8.45458 25.0261 8.34919 25.0261C8.24381 25.0261 8.13948 25.047 8.04226 25.0877C7.94504 25.1284 7.85687 25.1879 7.78289 25.263C7.7089 25.338 7.65056 25.427 7.61127 25.5247C7.57197 25.6225 7.55251 25.7271 7.554 25.8324V29.4099H4.37321V25.8324C4.37488 25.7259 4.35513 25.6202 4.31513 25.5215C4.27514 25.4228 4.21571 25.3331 4.14038 25.2578C4.06505 25.1825 3.97535 25.123 3.87661 25.083C3.77787 25.043 3.6721 25.0233 3.56558 25.025V25.025ZM26.6263 25.025C26.5219 25.0266 26.4188 25.0488 26.3229 25.0903C26.2271 25.1317 26.1403 25.1917 26.0676 25.2666C25.995 25.3416 25.9377 25.4302 25.8993 25.5273C25.8608 25.6243 25.8419 25.728 25.8435 25.8324V29.4099C25.8435 30.277 26.5666 30.9999 27.4339 30.9999H30.6147C31.482 30.9999 32.2051 30.277 32.2051 29.4099V25.8324C32.2066 25.7271 32.1871 25.6225 32.1478 25.5247C32.1085 25.427 32.0502 25.338 31.9762 25.263C31.9022 25.1879 31.8141 25.1284 31.7168 25.0877C31.6196 25.047 31.5153 25.0261 31.4099 25.0261C31.3045 25.0261 31.2002 25.047 31.103 25.0877C31.0058 25.1284 30.9176 25.1879 30.8436 25.263C30.7696 25.338 30.7113 25.427 30.672 25.5247C30.6327 25.6225 30.6132 25.7271 30.6147 25.8324V29.4099H27.4339V25.8324C27.4356 25.7259 27.4158 25.6202 27.3758 25.5215C27.3359 25.4228 27.2764 25.3331 27.2011 25.2578C27.1258 25.1825 27.0361 25.123 26.9373 25.083C26.8386 25.043 26.7328 25.0233 26.6263 25.025V25.025Z" fill="#495456"/>
<path d="M5.96434 13.9126C4.43664 13.9126 3.18115 15.1678 3.18115 16.6951C3.18115 18.2224 4.43664 19.4776 5.96434 19.4776C7.49204 19.4776 8.74753 18.2224 8.74753 16.6951C8.74753 15.1678 7.49204 13.9126 5.96434 13.9126ZM5.96434 15.5026C6.63252 15.5026 7.15714 16.0271 7.15714 16.6951C7.15714 17.3631 6.63252 17.8876 5.96434 17.8876C5.29616 17.8876 4.77155 17.3631 4.77155 16.6951C4.77155 16.0271 5.29616 15.5026 5.96434 15.5026Z" fill="#495456"/>
<path d="M10.3376 0C6.1662 0 2.78319 3.38217 2.78319 7.55251V11.7635C1.14789 12.738 0 13.9717 0 15.5025V25.44C2.10756e-05 25.6509 0.0838073 25.8531 0.232931 26.0022C0.382055 26.1513 0.584304 26.235 0.795197 26.235H34.1935C34.2989 26.2365 34.4035 26.2171 34.5013 26.1778C34.599 26.1385 34.688 26.0802 34.7631 26.0062C34.8381 25.9322 34.8977 25.8441 34.9384 25.7469C34.9791 25.6497 35 25.5454 35 25.44C35 25.3347 34.9791 25.2304 34.9384 25.1332C34.8977 25.036 34.8381 24.9478 34.7631 24.8739C34.688 24.7999 34.599 24.7416 34.5013 24.7023C34.4035 24.663 34.2989 24.6435 34.1935 24.645H1.59039V15.5025C1.59039 14.7228 2.31418 13.7737 3.95114 12.8939C4.0777 12.8268 4.18377 12.7267 4.25813 12.6042C4.33249 12.4818 4.37238 12.3415 4.37358 12.1983V7.55251C4.37358 4.23553 7.01976 1.59 10.3376 1.59H24.6511C27.9689 1.59 30.6151 4.23553 30.6151 7.55251V12.1983C30.6163 12.3415 30.6562 12.4818 30.7305 12.6042C30.8049 12.7267 30.911 12.8268 31.0375 12.8939C32.6745 13.7737 33.3983 14.7228 33.3983 15.5025V22.26C33.3968 22.3654 33.4163 22.47 33.4556 22.5677C33.4948 22.6655 33.5532 22.7545 33.6272 22.8295C33.7012 22.9045 33.7893 22.9641 33.8865 23.0048C33.9838 23.0454 34.0881 23.0664 34.1935 23.0664C34.2989 23.0664 34.4032 23.0454 34.5004 23.0048C34.5976 22.9641 34.6858 22.9045 34.7598 22.8295C34.8338 22.7545 34.8921 22.6655 34.9314 22.5677C34.9707 22.47 34.9902 22.3654 34.9887 22.26V15.5025C34.9887 13.9717 33.8408 12.738 32.2055 11.7635V7.55251C32.2055 3.38217 28.8225 0 24.6511 0H10.3376ZM11.5304 3.975C10.3113 3.975 9.15501 4.22743 8.25017 4.8818C7.34533 5.53618 6.75918 6.63559 6.75918 7.95001V10.9313C6.75999 11.0543 6.78937 11.1755 6.845 11.2853C6.90063 11.3951 6.981 11.4905 7.07976 11.5639C7.17853 11.6374 7.293 11.6869 7.41417 11.7086C7.53534 11.7303 7.65989 11.7236 7.77802 11.689C10.6198 10.8383 13.4652 10.335 17.4943 10.335C21.5235 10.335 24.3689 10.8383 27.2107 11.689C27.3288 11.7236 27.4533 11.7303 27.5745 11.7086C27.6957 11.6869 27.8101 11.6374 27.9089 11.5639C28.0077 11.4905 28.088 11.3951 28.1437 11.2853C28.1993 11.1755 28.2287 11.0543 28.2295 10.9313V7.95001C28.2295 6.63559 27.6433 5.53618 26.7385 4.8818C25.8337 4.22743 24.6774 3.975 23.4583 3.975H11.5304ZM11.5304 5.56501H23.4583C24.442 5.56501 25.2742 5.78859 25.8066 6.17368C26.3391 6.55877 26.6391 7.06227 26.6391 7.95001V9.92509C23.9798 9.20755 21.1993 8.74501 17.4943 8.74501C13.7893 8.74501 11.0089 9.20755 8.34957 9.92509V7.95001C8.34957 7.06227 8.64956 6.55877 9.18204 6.17368C9.71452 5.78859 10.5467 5.56501 11.5304 5.56501Z" fill="#495456"/>
<path d="M29.0244 13.9126C27.4967 13.9126 26.2412 15.1678 26.2412 16.6951C26.2412 18.2224 27.4967 19.4776 29.0244 19.4776C30.5521 19.4776 31.8076 18.2224 31.8076 16.6951C31.8076 15.1678 30.5521 13.9126 29.0244 13.9126ZM29.0244 15.5026C29.6926 15.5026 30.2172 16.0271 30.2172 16.6951C30.2172 17.3631 29.6926 17.8876 29.0244 17.8876C28.3562 17.8876 27.8316 17.3631 27.8316 16.6951C27.8316 16.0271 28.3562 15.5026 29.0244 15.5026Z" fill="#495456"/>
</svg>
